<svg width="2349" height="2349" viewBox="0 0 2349 2349" fill="none" xmlns="http://www.w3.org/2000/svg">
<rect width="2349" height="2349" rx="1174.5" fill="#F6EFDE"/>
<circle cx="1175" cy="1175" r="1115" stroke="#54321E" stroke-width="30"/>
<circle cx="1175" cy="1175" r="1057.5" stroke="#54321E" stroke-width="15"/>
<circle cx="1175" cy="1191" r="707.5" stroke="#54321E" stroke-width="15"/>
<path d="M769.274 1493.54L758.146 1446.54L725 1306.54L1059.5 739.044C1069.94 724.223 1076.82 721.608 1090 722.044H1173.5C1226.9 724.084 1257.05 727.243 1311.5 739.044C1381.88 754.139 1420.13 765.747 1484.5 796.544C1549.9 828.383 1581.82 850.97 1629 901.044L1686.5 1201.54C1691.15 1225.85 1690.23 1237 1669.5 1243.54L1646.5 1253.71M725 1306.54L1173.5 1107.04C1193.8 1100.58 1199.29 1105.53 1204.5 1121.04C1210.42 1139.32 1214.74 1148.77 1224 1164.54C1244.31 1181.42 1251.28 1176.97 1258.5 1152.54V1088.04C1258.85 1072.46 1262.9 1065.94 1274 1056.54L1568.5 926.044C1582.22 921.021 1587.62 923.055 1591 940.044L1613.5 1046.04C1617.41 1061.92 1611.07 1067.88 1591 1075.54L758.146 1446.54M769.274 1493.54L801 1627.54L1646.5 1253.71M769.274 1493.54L1613.5 1121.04C1623.53 1115.4 1626.37 1120.98 1629 1138.54L1646.5 1253.71M1031.5 939.044C1015.79 944.276 1002.77 953.027 992.5 968.044C984.181 982.098 985.296 987.55 992.5 995.044C1008.43 1004.19 1017.98 1006.81 1035.5 1009.54C1043.74 1013.38 1046.42 1016.5 1046.5 1024.54C1046.83 1033.67 1046.17 1038.79 1046.5 1049.04C1049.31 1058.55 1052.66 1062.45 1063.5 1065.54C1073.99 1069.01 1078.78 1068.07 1087 1065.54C1104.62 1058.04 1113.96 1053.44 1127 1042.54C1140.06 1036.1 1144.14 1036.09 1154 1041.99C1166.7 1048.39 1172.96 1051.4 1182 1055.99C1200.79 1060.44 1211.02 1060.29 1224 1056.54C1242.95 1049.28 1245.86 1042.37 1247 1028.54C1252.66 991.84 1263.83 976.875 1302 963.044C1366.97 926.257 1373.65 909.115 1322 886.044L1285 876.544M1031.5 939.044L1027 904.544L1140.5 803.044L1279.5 839.544L1285 876.544L1290.5 907.544L1180.5 1003.54L1035.5 968.044L1031.5 939.044ZM1279.5 839.544L1173.5 942.544M1027 904.544L1173.5 942.544M1173.5 942.544L1180.5 1003.54" stroke="#54321E" stroke-width="20"/>
<path d="M273.873 901.875C273.49 902.983 273.136 904.152 272.813 905.384C272.429 906.491 272.014 907.691 271.566 908.982L336.343 931.426L337.734 927.412C341.218 917.354 343.079 908.852 343.315 901.906C343.459 894.928 342.554 889.188 340.6 884.687C338.585 880.062 335.801 876.462 332.249 873.888C328.697 871.313 324.937 869.339 320.969 867.964C316.355 866.366 311.855 865.633 307.468 865.767C303.081 865.9 298.896 867.241 294.913 869.788C290.962 872.243 287.211 876.059 283.66 881.237C280.109 886.414 276.847 893.294 273.873 901.875ZM355.403 914.001C353.868 918.43 352.74 922.431 352.018 926.005C351.237 929.455 350.533 932.829 349.907 936.126L421.881 961.063C422.527 961.287 423.301 961.142 424.203 960.627C425.268 959.343 426.305 957.842 427.313 956.124C428.322 954.406 429.254 952.611 430.11 950.737C430.998 948.771 431.824 946.835 432.587 944.929C433.383 942.931 434.101 941.009 434.74 939.164C437.042 932.52 438.274 926.28 438.435 920.445C438.596 914.61 437.824 909.382 436.118 904.76C434.352 900.014 431.682 895.937 428.109 892.528C424.536 889.12 420.165 886.52 414.998 884.73C409.923 882.972 404.468 882.012 398.633 881.85C392.83 881.597 387.182 882.534 381.691 884.662C376.199 886.79 371.14 890.205 366.514 894.906C361.888 899.608 358.184 905.973 355.403 914.001ZM420.432 856.072C428.275 858.79 434.836 862.82 440.116 868.163C445.304 873.475 449.105 879.804 451.52 887.152C453.967 894.408 454.984 902.511 454.569 911.463C454.155 920.414 452.222 929.873 448.769 939.838C448.065 941.869 447.156 944.344 446.041 947.265C445.05 950.125 443.932 953.201 442.689 956.49C441.446 959.78 440.155 963.209 438.816 966.775C437.508 970.25 436.171 973.662 434.804 977.012C431.745 984.944 428.497 993.276 425.059 1002.01L421.462 1012.39L414.126 1009.85C415.008 1003.12 415.303 997.799 415.009 993.873C414.623 989.916 413.785 987.713 412.493 987.265L264.669 936.048C263.915 939.714 263.194 943.288 262.504 946.77C261.815 950.252 261.235 953.565 260.766 956.71L250.688 954.923C250.984 950.788 251.533 946.069 252.337 940.767C253.08 935.34 254.042 929.731 255.222 923.938C256.342 918.022 257.662 912.123 259.183 906.242C260.644 900.237 262.269 894.651 264.059 889.483C267.416 879.795 271.314 871.378 275.753 864.235C280.131 856.967 284.863 851.217 289.947 846.984C295.063 842.658 300.423 839.865 306.028 838.603C311.665 837.249 317.39 837.579 323.203 839.593C333.169 843.046 340.841 848.494 346.219 855.939C351.63 863.291 354.416 871.956 354.576 881.933C357.825 876.135 361.884 871.133 366.751 866.928C371.651 862.632 377.032 859.329 382.897 857.02C388.669 854.679 394.799 853.392 401.287 853.16C407.683 852.895 414.065 853.866 420.432 856.072ZM428.146 604.194C425.703 610.518 424.176 615.69 423.565 619.709C423.006 623.646 423.302 625.985 424.452 626.724L500.957 675.937C511.716 682.859 520.427 690.436 527.09 698.67C533.806 706.822 538.442 715.32 540.998 724.163C543.553 733.006 544.067 742.046 542.539 751.281C540.981 760.381 537.35 769.366 531.644 778.236C526.202 786.696 519.966 793.773 512.934 799.469C505.986 805.217 498.412 809.228 490.215 811.502C481.988 813.641 473.242 813.88 463.977 812.216C454.766 810.471 445.15 806.375 435.13 799.93L348.769 744.377C347.784 743.743 345.627 744.388 342.3 746.311C338.972 748.235 334.832 751.783 329.878 756.957L323.348 752.757L360.992 694.239L367.521 698.439C365.078 704.763 363.551 709.935 362.94 713.954C362.381 717.891 362.677 720.23 363.827 720.969L443.411 772.164C459.181 782.308 473.611 786.771 486.702 785.555C499.845 784.256 510.934 776.584 519.969 762.54C523.72 756.709 525.64 750.745 525.73 744.648C525.738 738.499 524.408 732.534 521.739 726.754C519.071 720.974 515.271 715.51 510.338 710.362C505.457 705.133 499.978 700.564 493.901 696.654L412.961 644.588C411.975 643.954 409.819 644.598 406.491 646.522C403.164 648.446 399.023 651.994 394.069 657.168L387.54 652.968L421.617 599.994L428.146 604.194ZM613.725 661.746L608.353 656.141C610.988 652.398 613.061 649.127 614.571 646.327C616.081 643.528 617.166 641.202 617.827 639.352C618.491 637.363 618.835 635.816 618.858 634.711C618.814 633.536 618.556 632.702 618.083 632.208L513.182 522.746L483.146 551.531C482.089 552.544 481.338 553.737 480.895 555.109C480.522 556.413 480.551 558.279 480.983 560.705C481.418 562.994 482.321 565.983 483.693 569.673C484.997 573.292 486.833 577.89 489.201 583.466L481.467 586.617C479.649 584.437 477.698 581.978 475.615 579.24C473.465 576.431 471.348 573.658 469.265 570.92C467.185 568.044 465.173 565.238 463.228 562.503C461.354 559.701 459.715 557.214 458.31 555.043L567.243 450.649L573.47 450.16C575.156 452.061 576.941 454.205 578.824 456.594C580.64 458.912 582.52 461.438 584.465 464.173C586.412 466.77 588.323 469.47 590.198 472.273C592.143 475.008 593.951 477.671 595.622 480.262L589.806 485.836C585.992 483.269 582.69 481.023 579.899 479.099C577.108 477.174 574.652 475.741 572.531 474.798C570.343 473.784 568.417 473.398 566.754 473.639C565.094 473.742 563.524 474.502 562.044 475.921L533.277 503.489L638.177 612.951C638.583 613.374 639.371 613.633 640.544 613.727C641.648 613.75 643.208 613.473 645.224 612.894C647.239 612.315 649.677 611.331 652.539 609.941C655.4 608.552 658.756 606.62 662.608 604.147L667.98 609.752L613.725 661.746ZM740.783 553.262L736.739 546.635C740.116 543.545 742.843 540.795 744.918 538.384C746.994 535.974 748.553 533.936 749.596 532.27C750.671 530.47 751.339 529.033 751.599 527.959C751.808 526.802 751.735 525.932 751.379 525.348L672.413 395.924L636.9 417.592C635.649 418.355 634.66 419.359 633.933 420.604C633.288 421.798 632.917 423.626 632.818 426.089C632.751 428.417 632.992 431.531 633.54 435.429C634.037 439.244 634.844 444.129 635.96 450.083L627.73 451.5C626.422 448.981 625.045 446.161 623.598 443.04C622.1 439.835 620.628 436.672 619.181 433.551C617.767 430.295 616.404 427.123 615.091 424.035C613.862 420.895 612.795 418.114 611.889 415.693L740.687 337.109L746.874 337.967C748.113 340.186 749.396 342.663 750.722 345.4C751.998 348.054 753.292 350.925 754.605 354.013C755.95 356.968 757.237 360.015 758.466 363.155C759.779 366.243 760.973 369.232 762.05 372.122L755.172 376.318C751.999 372.992 749.256 370.09 746.943 367.611C744.63 365.133 742.539 363.206 740.67 361.829C738.75 360.37 736.952 359.579 735.276 359.458C733.633 359.202 731.936 359.608 730.185 360.676L696.172 381.428L775.138 510.852C775.443 511.352 776.158 511.774 777.282 512.117C778.356 512.377 779.939 512.441 782.032 512.308C784.124 512.175 786.717 511.738 789.81 510.994C792.903 510.251 796.596 509.085 800.888 507.496L804.932 514.123L740.783 553.262ZM968.178 404.778C969.212 408.867 970.167 412.88 971.044 416.817C971.921 420.754 972.67 424.477 973.291 427.987C973.88 431.404 974.339 434.454 974.667 437.135C975.055 439.691 975.309 441.725 975.43 443.236L852.542 486.77L849.95 479.452C855.753 475.946 860.096 472.853 862.98 470.174C865.832 467.403 867.029 465.372 866.573 464.084L816.141 321.727C815.75 320.623 813.65 319.813 809.841 319.297C806.033 318.782 800.586 319.053 793.502 320.113L790.909 312.795L905.651 272.146L911.804 274.162C912.468 276.621 913.17 279.48 913.91 282.74C914.618 285.908 915.267 289.201 915.856 292.619C916.412 295.944 916.874 299.148 917.24 302.229C917.699 305.279 917.962 307.776 918.029 309.72L910.435 312.411C906.975 304.105 903.688 298.483 900.575 295.545C897.462 292.608 894.203 291.742 890.797 292.949L841.642 310.362L862.431 369.045L918.076 349.332L923.409 352.105C923.129 353.654 922.714 355.407 922.164 357.363C921.706 359.287 921.139 361.197 920.465 363.094C919.882 364.958 919.22 366.746 918.48 368.459C917.832 370.139 917.132 371.526 916.38 372.622C914.511 371.73 912.584 371.117 910.601 370.784C908.71 370.418 906.592 370.288 904.246 370.393C901.993 370.466 899.391 370.87 896.439 371.605C893.58 372.307 890.217 373.343 886.351 374.713L866.882 381.61L890.362 447.886C890.851 449.267 891.613 450.395 892.649 451.272C893.652 452.056 895.313 452.504 897.631 452.615C899.917 452.634 902.983 452.221 906.828 451.377C910.64 450.441 915.584 448.897 921.66 446.744L938.091 440.923C942.325 439.423 945.801 437.829 948.518 436.142C951.328 434.421 953.557 432.233 955.206 429.576C956.855 426.92 958.013 423.609 958.68 419.643C959.439 415.644 959.823 410.587 959.832 404.471L968.178 404.778ZM1031.31 255.825C1029.67 256.04 1027.98 256.31 1026.25 256.635C1024.6 256.85 1022.91 257.12 1021.18 257.445L1030.7 330.214C1033.38 330.356 1035.69 330.349 1037.64 330.193C1039.59 330.036 1041.63 329.819 1043.76 329.54C1058.38 327.628 1068.98 322.843 1075.57 315.187C1082.25 307.517 1084.77 297.437 1083.13 284.946C1082.48 279.911 1081 275.377 1078.7 271.344C1076.48 267.202 1073.28 263.829 1069.1 261.224C1064.91 258.522 1059.69 256.693 1053.46 255.735C1047.22 254.68 1039.83 254.71 1031.31 255.825ZM995.7 437.613L994.693 429.915C1001.1 427.698 1005.99 425.581 1009.37 423.563C1012.74 421.448 1014.34 419.713 1014.16 418.357L993.947 263.814C990.525 264.754 987.102 265.694 983.679 266.634C980.354 267.562 977.028 268.489 973.702 269.417L970.736 259.168C975.329 257.385 980.032 255.687 984.843 254.073C989.642 252.362 994.654 250.77 999.879 249.299C1005.19 247.719 1010.76 246.3 1016.61 245.043C1022.45 243.786 1028.66 242.728 1035.25 241.866C1047.16 240.309 1057.57 240.08 1066.48 241.18C1075.39 242.28 1082.91 244.447 1089.04 247.683C1095.18 250.919 1099.96 255.07 1103.38 260.138C1106.79 265.109 1108.9 270.694 1109.71 276.891C1110.61 283.766 1110.41 290.144 1109.11 296.027C1107.9 301.896 1105.8 307.292 1102.8 312.215C1099.8 317.138 1095.99 321.526 1091.38 325.38C1086.76 329.234 1081.57 332.474 1075.81 335.099L1129.31 397.388C1131.03 399.231 1132.74 400.681 1134.46 401.737C1136.27 402.781 1138.18 403.515 1140.21 403.94C1142.32 404.255 1144.59 404.302 1147.02 404.082C1149.55 403.85 1152.45 403.373 1155.7 402.652L1158.45 410.122C1155.39 411.605 1152.24 413.053 1148.97 414.464C1145.71 415.876 1142.53 417.178 1139.44 418.37C1136.44 419.55 1133.56 420.518 1130.81 421.272C1128.16 422.111 1125.91 422.651 1124.07 422.891C1121.27 423.259 1118.41 422.845 1115.49 421.65C1112.67 420.443 1110.44 418.814 1108.8 416.764L1055.09 341.649C1053.95 341.898 1052.75 342.153 1051.5 342.414C1050.34 342.566 1049.18 342.718 1048.02 342.87C1045.5 343.2 1042.97 343.432 1040.42 343.568C1037.87 343.606 1035.2 343.513 1032.41 343.286L1041.76 414.748C1041.91 415.91 1043.79 417.141 1047.41 418.44C1051.01 419.643 1056.44 420.46 1063.69 420.891L1064.69 428.59L995.7 437.613ZM1327.98 269.008C1326.88 274.465 1326.5 280.267 1326.85 286.415C1327.22 292.468 1328.18 298.838 1329.72 305.525C1336.23 303.354 1341.7 300.923 1346.13 298.231C1350.58 295.444 1354.21 292.54 1357.01 289.519C1359.91 286.518 1362.08 283.42 1363.52 280.224C1365.06 277.048 1366.15 273.88 1366.79 270.722C1367.46 267.371 1367.66 264.173 1367.38 261.128C1367.1 258.082 1366.36 255.342 1365.15 252.907C1364.07 250.396 1362.44 248.324 1360.28 246.692C1358.24 244.984 1355.73 243.83 1352.76 243.23C1349.6 242.592 1346.65 242.893 1343.91 244.132C1341.29 245.295 1338.88 247.101 1336.69 249.548C1334.62 251.919 1332.83 254.845 1331.33 258.328C1329.85 261.715 1328.73 265.275 1327.98 269.008ZM1309.56 420.11C1316.73 421.561 1323.66 421.814 1330.32 420.869C1337.11 419.848 1343.46 417.993 1349.38 415.304C1345.56 409.551 1341.72 403.396 1337.87 396.839C1334.11 390.3 1330.45 383.485 1326.91 376.392C1323.45 369.318 1320.18 362.081 1317.09 354.683C1314.12 347.208 1311.49 339.752 1309.21 332.317C1304.32 335.314 1300.12 338.351 1296.61 341.428C1293.1 344.505 1290.11 347.688 1287.66 350.977C1285.22 354.17 1283.24 357.557 1281.72 361.135C1280.31 364.637 1279.22 368.303 1278.45 372.131C1277.1 378.832 1277.01 384.941 1278.18 390.459C1279.48 395.901 1281.6 400.664 1284.56 404.75C1287.54 408.739 1291.2 412.069 1295.55 414.74C1300 417.334 1304.67 419.124 1309.56 420.11ZM1447.13 350.168C1444.13 352.652 1441.08 354.925 1437.98 356.987C1434.89 358.954 1431.99 360.509 1429.26 361.653C1427.71 360.443 1425.91 359.281 1423.84 358.166C1421.89 356.975 1419.86 355.918 1417.76 354.994C1415.77 353.994 1413.8 353.148 1411.84 352.455C1409.91 351.665 1408.14 351.059 1406.53 350.634C1407.16 352.455 1407.62 354.141 1407.9 355.693C1408.28 357.264 1408.5 358.902 1408.55 360.607C1408.61 362.311 1408.49 364.131 1408.2 366.064C1407.91 367.998 1407.51 370.21 1407.01 372.698C1405.67 379.303 1402.77 386.039 1398.29 392.906C1393.82 399.773 1388.18 406.206 1381.39 412.207C1383.63 415.448 1385.84 418.536 1388.04 421.47C1390.25 424.309 1392.41 426.937 1394.51 429.354C1397.93 433.632 1401.79 436.752 1406.07 438.713C1410.47 440.599 1415.48 441.461 1421.09 441.3L1421.14 449.229C1416.65 450.216 1412.3 451.031 1408.09 451.674C1403.97 452.336 1400.19 452.817 1396.74 453.117C1393.39 453.436 1390.51 453.602 1388.12 453.617C1385.7 453.727 1383.97 453.676 1382.92 453.463C1380.72 453.018 1377.38 450.551 1372.91 446.061C1368.55 441.494 1363.64 435.471 1358.18 427.991C1349.42 432.398 1340.07 435.492 1330.15 437.273C1320.34 438.977 1310.36 438.804 1300.21 436.754C1290.93 434.879 1282.75 431.98 1275.67 428.059C1268.57 424.234 1262.81 419.483 1258.37 413.805C1253.94 408.128 1250.93 401.591 1249.33 394.195C1247.86 386.723 1248.02 378.488 1249.84 369.49C1251.97 358.961 1257.66 349.051 1266.91 339.761C1276.16 330.471 1288.74 322.203 1304.65 314.956C1303.09 307.369 1302.13 300.051 1301.76 293.003C1301.51 285.877 1302.04 279.06 1303.35 272.551C1304.92 264.798 1307.71 257.889 1311.72 251.826C1315.83 245.782 1320.62 240.821 1326.09 236.944C1331.67 232.991 1337.74 230.283 1344.32 228.821C1350.91 227.263 1357.51 227.152 1364.11 228.486C1370.52 229.782 1375.78 231.889 1379.87 234.808C1384.08 237.651 1387.24 240.98 1389.36 244.796C1391.48 248.611 1392.72 252.798 1393.1 257.357C1393.59 261.839 1393.37 266.378 1392.44 270.973C1391.43 275.95 1389.48 280.687 1386.58 285.182C1383.68 289.677 1380.04 293.873 1375.67 297.772C1371.31 301.575 1366.33 305.051 1360.71 308.2C1355.19 311.368 1349.24 314.153 1342.88 316.554L1333.62 320.213C1335.76 326.92 1338.22 333.695 1341.02 340.538C1343.94 347.304 1347.07 354.013 1350.41 360.666C1353.84 367.337 1357.35 373.875 1360.94 380.279C1364.62 386.702 1368.37 392.838 1372.17 398.687C1375.72 394.921 1378.61 390.971 1380.84 386.839C1383.18 382.63 1384.76 378.515 1385.57 374.495C1386.38 370.475 1386.47 366.606 1385.82 362.889C1385.28 359.192 1384.15 355.877 1382.45 352.943C1380.85 350.029 1378.81 347.573 1376.32 345.577C1373.93 343.599 1371.35 342.33 1368.57 341.769L1366 336.766C1366.59 336.288 1367.41 335.706 1368.44 335.018C1369.57 334.35 1370.74 333.739 1371.95 333.186C1373.18 332.538 1374.38 331.985 1375.57 331.527C1376.86 331.089 1378.02 330.775 1379.05 330.586L1444.52 343.814L1447.13 350.168ZM1634.67 363.775C1633.66 363.182 1632.59 362.606 1631.44 362.047C1630.43 361.454 1629.34 360.811 1628.16 360.118L1593.45 419.235L1597.11 421.386C1606.29 426.776 1614.26 430.268 1621.02 431.862C1627.84 433.372 1633.64 433.61 1638.44 432.576C1643.37 431.508 1647.45 429.485 1650.67 426.506C1653.89 423.528 1656.56 420.228 1658.69 416.607C1661.16 412.397 1662.76 408.127 1663.49 403.799C1664.22 399.471 1663.73 395.104 1662.01 390.699C1660.38 386.343 1657.37 381.916 1652.99 377.419C1648.61 372.922 1642.51 368.374 1634.67 363.775ZM1606.79 441.343C1602.75 438.969 1599.05 437.078 1595.69 435.669C1592.46 434.226 1589.29 432.874 1586.18 431.614L1547.61 497.299C1547.26 497.889 1547.25 498.676 1547.58 499.661C1548.63 500.958 1549.9 502.269 1551.39 503.595C1552.87 504.92 1554.45 506.187 1556.12 507.394C1557.87 508.65 1559.61 509.839 1561.33 510.962C1563.13 512.134 1564.88 513.215 1566.56 514.203C1572.62 517.764 1578.5 520.195 1584.19 521.498C1589.88 522.801 1595.16 523.069 1600.02 522.303C1605.02 521.502 1609.55 519.683 1613.59 516.848C1617.63 514.013 1621.04 510.237 1623.81 505.521C1626.53 500.89 1628.54 495.729 1629.84 490.039C1631.23 484.398 1631.42 478.677 1630.41 472.874C1629.4 467.072 1627.04 461.442 1623.34 455.983C1619.64 450.525 1614.12 445.645 1606.79 441.343ZM1650.84 516.47C1646.64 523.628 1641.4 529.272 1635.13 533.401C1628.9 537.446 1621.95 539.932 1614.27 540.859C1606.67 541.836 1598.53 541.243 1589.83 539.081C1581.14 536.919 1572.24 533.168 1563.15 527.827C1561.29 526.739 1559.04 525.362 1556.4 523.696C1553.79 522.163 1550.99 520.464 1548.01 518.6C1545.03 516.735 1541.92 514.797 1538.68 512.784C1535.53 510.821 1532.45 508.84 1529.43 506.842C1522.26 502.288 1514.72 497.469 1506.84 492.385L1497.36 486.822L1501.29 480.127C1507.71 482.31 1512.88 483.643 1516.78 484.125C1520.74 484.523 1523.06 484.133 1523.76 482.954L1602.97 348.047C1599.52 346.589 1596.16 345.18 1592.88 343.821C1589.6 342.462 1586.47 341.244 1583.48 340.167L1587.21 330.635C1591.2 331.736 1595.72 333.201 1600.76 335.029C1605.94 336.822 1611.25 338.865 1616.7 341.159C1622.28 343.417 1627.81 345.869 1633.27 348.513C1638.88 351.123 1644.04 353.813 1648.75 356.582C1657.59 361.774 1665.08 367.247 1671.22 373.001C1677.48 378.72 1682.19 384.487 1685.35 390.302C1688.59 396.167 1690.27 401.971 1690.41 407.715C1690.63 413.508 1689.19 419.057 1686.07 424.362C1680.73 433.457 1673.88 439.911 1665.53 443.726C1657.26 447.589 1648.22 448.621 1638.4 446.821C1643.45 451.145 1647.56 456.106 1650.73 461.703C1653.98 467.35 1656.16 473.275 1657.28 479.478C1658.44 485.597 1658.5 491.861 1657.45 498.269C1656.46 504.592 1654.26 510.659 1650.84 516.47ZM1769.04 635.728C1765.93 638.582 1762.82 641.299 1759.7 643.877C1756.66 646.521 1753.74 648.951 1750.95 651.167C1748.29 653.376 1745.86 655.262 1743.66 656.826C1741.6 658.383 1739.93 659.574 1738.66 660.399L1643 573.989L1648.21 568.228C1654.05 571.665 1658.84 574.014 1662.56 575.277C1666.36 576.467 1668.71 576.555 1669.63 575.541L1770.87 463.471C1771.65 462.601 1771.37 460.368 1770.01 456.773C1768.65 453.177 1765.82 448.516 1761.52 442.788L1766.72 437.027L1818.36 483.669L1813.15 489.43C1807.31 485.993 1802.45 483.646 1798.59 482.391C1794.79 481.201 1792.44 481.113 1791.52 482.127L1696.18 587.675C1695 588.98 1694.24 590.401 1693.9 591.939C1693.7 593.47 1694.04 595.286 1694.91 597.385C1695.84 599.412 1697.44 601.785 1699.73 604.504C1702.01 607.223 1705.14 610.383 1709.13 613.983L1723.58 627.043C1726.92 630.054 1729.94 632.321 1732.64 633.843C1735.42 635.43 1738.33 636.285 1741.38 636.407C1744.43 636.528 1747.82 635.907 1751.55 634.542C1755.36 633.242 1759.95 631.142 1765.34 628.241L1769.04 635.728ZM1752.39 674.853L1758.42 669.952C1763.67 674.239 1768.04 677.291 1771.53 679.107C1775.1 680.861 1777.42 681.306 1778.48 680.443L1895.6 585.104C1896.51 584.364 1896.57 582.114 1895.78 578.353C1894.98 574.593 1892.9 569.554 1889.52 563.238L1895.54 558.337L1939.46 612.3L1933.44 617.201C1928.19 612.914 1923.75 609.856 1920.12 608.026C1916.55 606.271 1914.24 605.826 1913.17 606.689L1796.05 702.029C1795.14 702.768 1795.08 705.018 1795.87 708.779C1796.81 712.554 1798.96 717.599 1802.34 723.915L1796.32 728.816L1752.39 674.853ZM1919.55 826.179C1915.76 828.399 1911.56 830.121 1906.96 831.344C1902.41 832.651 1897.55 833.344 1892.39 833.422C1887.36 833.535 1882.19 833.001 1876.86 831.822C1871.61 830.592 1866.44 828.526 1861.35 825.624C1856.3 822.806 1851.42 819.102 1846.69 814.511C1842.02 810.006 1837.73 804.424 1833.84 797.766C1832.16 794.9 1830.58 791.525 1829.1 787.64C1827.67 783.839 1826.41 779.764 1825.34 775.414C1824.23 771.198 1823.37 766.834 1822.77 762.322C1822.21 757.895 1822.04 753.639 1822.25 749.554C1822.24 748.767 1823.49 747.415 1825.99 745.499C1828.54 743.668 1831.62 741.691 1835.25 739.57C1838.87 737.449 1842.68 735.447 1846.67 733.564C1850.74 731.632 1854.31 730.28 1857.36 729.509L1860.51 736.326C1856.67 741.176 1853.69 746.143 1851.58 751.228C1849.46 756.314 1848.11 761.349 1847.52 766.334C1847.06 771.354 1847.34 776.281 1848.36 781.115C1849.47 785.901 1851.28 790.443 1853.79 794.741C1856.01 798.533 1858.88 801.889 1862.4 804.808C1866.01 807.678 1869.89 809.872 1874.06 811.391C1878.37 812.945 1882.72 813.62 1887.13 813.417C1891.67 813.248 1895.96 811.98 1900.01 809.612C1905.15 806.603 1908.91 802.875 1911.29 798.429C1913.66 793.982 1915.2 789.067 1915.89 783.681C1916.67 778.246 1916.82 772.503 1916.33 766.451C1915.93 760.35 1915.41 754.147 1914.77 747.843C1914.14 741.538 1913.7 735.286 1913.47 729.087C1913.32 722.838 1913.8 716.897 1914.92 711.265C1916.12 705.583 1918.29 700.297 1921.42 695.407C1924.56 690.517 1929.2 686.271 1935.35 682.67C1939.31 680.351 1944.22 678.78 1950.07 677.955C1956.01 677.082 1962.28 677.543 1968.88 679.34C1975.56 681.087 1982.24 684.476 1988.92 689.506C1995.64 694.62 2001.82 701.981 2007.44 711.589C2009.81 715.634 2011.88 719.852 2013.66 724.243C2015.44 728.634 2016.84 732.853 2017.85 736.9C2018.86 740.948 2019.46 744.781 2019.66 748.401C2019.85 752.021 2019.55 755.083 2018.75 757.587C2018.59 758.473 2017.46 759.139 2015.34 759.585C2013.31 759.981 2010.89 760.206 2008.1 760.26C2005.38 760.264 2002.64 760.117 1999.86 759.819C1997.08 759.521 1994.94 759.137 1993.42 758.669L1990.77 752.41C1992.61 748.393 1993.88 744.479 1994.59 740.668C1995.3 736.857 1995.53 733.275 1995.26 729.923C1995.08 726.521 1994.5 723.298 1993.51 720.256C1992.57 717.298 1991.41 714.639 1990.03 712.279C1987.36 707.728 1984.42 704.246 1981.19 701.833C1978.06 699.37 1974.82 697.702 1971.48 696.829C1968.22 695.906 1965.03 695.679 1961.91 696.147C1958.84 696.7 1956.12 697.667 1953.77 699.049C1949.8 701.367 1946.93 704.577 1945.14 708.678C1943.44 712.73 1942.37 717.374 1941.93 722.612C1941.62 727.884 1941.67 733.571 1942.07 739.672C1942.52 745.857 1942.94 752.176 1943.32 758.629C1943.84 765.116 1944 771.583 1943.81 778.029C1943.76 784.51 1942.97 790.691 1941.43 796.569C1939.94 802.533 1937.46 808.058 1933.99 813.146C1930.6 818.184 1925.79 822.528 1919.55 826.179ZM1974.85 972.581C1970.71 974.045 1966.26 974.944 1961.51 975.276C1956.79 975.701 1951.89 975.465 1946.81 974.568C1941.86 973.73 1936.87 972.229 1931.86 970.064C1926.94 967.867 1922.25 964.863 1917.8 961.051C1913.38 957.332 1909.28 952.772 1905.51 947.373C1901.77 942.066 1898.61 935.776 1896.04 928.502C1894.94 925.371 1894.02 921.758 1893.3 917.663C1892.61 913.661 1892.15 909.422 1891.91 904.948C1891.62 900.598 1891.6 896.151 1891.86 891.606C1892.15 887.153 1892.78 882.941 1893.76 878.97C1893.9 878.195 1895.38 877.103 1898.2 875.693C1901.05 874.376 1904.45 873.017 1908.41 871.618C1912.37 870.219 1916.48 868.971 1920.76 867.875C1925.12 866.746 1928.88 866.092 1932.03 865.912L1933.83 873.199C1929.14 877.237 1925.28 881.553 1922.24 886.148C1919.21 890.743 1916.93 895.433 1915.41 900.217C1914.01 905.06 1913.36 909.952 1913.45 914.892C1913.63 919.8 1914.55 924.602 1916.21 929.297C1917.67 933.441 1919.86 937.278 1922.76 940.808C1925.76 944.306 1929.16 947.195 1932.97 949.474C1936.91 951.812 1941.06 953.297 1945.42 953.929C1949.91 954.621 1954.37 954.186 1958.79 952.624C1964.41 950.639 1968.8 947.687 1971.97 943.769C1975.15 939.851 1977.58 935.314 1979.28 930.156C1981.07 924.966 1982.3 919.353 1982.96 913.318C1983.72 907.251 1984.38 901.062 1984.94 894.751C1985.51 888.44 1986.26 882.218 1987.2 876.085C1988.24 869.92 1989.83 864.178 1991.99 858.857C1994.24 853.504 1997.37 848.723 2001.37 844.512C2005.37 840.301 2010.73 837.008 2017.45 834.632C2021.78 833.103 2026.9 832.486 2032.8 832.781C2038.8 833.044 2044.87 834.68 2051 837.689C2057.24 840.666 2063.16 845.254 2068.76 851.454C2074.41 857.747 2079.08 866.141 2082.79 876.637C2084.35 881.057 2085.59 885.591 2086.51 890.238C2087.43 894.885 2088 899.292 2088.23 903.457C2088.46 907.623 2088.33 911.502 2087.84 915.093C2087.35 918.685 2086.47 921.635 2085.22 923.943C2084.89 924.783 2083.65 925.222 2081.49 925.261C2079.42 925.267 2077.01 925.033 2074.25 924.557C2071.58 924.049 2068.91 923.387 2066.24 922.57C2063.57 921.753 2061.54 920.971 2060.13 920.224L2058.72 913.578C2061.28 909.98 2063.27 906.377 2064.68 902.769C2066.1 899.16 2067 895.685 2067.37 892.343C2067.83 888.968 2067.87 885.693 2067.47 882.519C2067.11 879.437 2066.47 876.607 2065.56 874.028C2063.8 869.056 2061.57 865.081 2058.86 862.103C2056.24 859.092 2053.37 856.843 2050.26 855.355C2047.23 853.834 2044.15 853.009 2040.99 852.88C2037.87 852.844 2035.02 853.281 2032.44 854.192C2028.12 855.722 2024.69 858.331 2022.16 862.021C2019.73 865.679 2017.8 870.038 2016.37 875.098C2015.08 880.217 2014.05 885.811 2013.29 891.878C2012.57 898.038 2011.79 904.322 2010.94 910.73C2010.23 917.199 2009.17 923.58 2007.77 929.875C2006.49 936.23 2004.54 942.149 2001.93 947.632C1999.34 953.207 1995.86 958.165 1991.49 962.506C1987.21 966.815 1981.67 970.173 1974.85 972.581Z" fill="#54321E"/>
<path d="M710.972 1972.27C708.295 1975.53 705.632 1978.68 702.984 1981.72C700.336 1984.76 697.784 1987.58 695.329 1990.16C692.928 1992.66 690.746 1994.84 688.783 1996.7C686.956 1998.53 685.47 1999.94 684.325 2000.93L576.35 1927.87L580.701 1921.44C586.967 1924.03 592.034 1925.69 595.902 1926.42C599.825 1927.07 602.17 1926.83 602.936 1925.7L687.572 1800.61C688.229 1799.64 687.634 1797.47 685.789 1794.1C683.943 1790.73 680.491 1786.51 675.434 1781.44L679.785 1775.01L780.603 1843.22L782.632 1849.37C781.048 1851.37 779.163 1853.63 776.979 1856.16C774.849 1858.61 772.584 1861.09 770.183 1863.59C767.837 1866.01 765.533 1868.28 763.27 1870.41C761.089 1872.59 759.235 1874.28 757.71 1875.49L751.037 1870.97C755.668 1863.26 758.241 1857.28 758.758 1853.03C759.275 1848.78 758.037 1845.64 755.045 1843.62L711.854 1814.39L676.966 1865.95L725.858 1899.04L726.792 1904.97C725.379 1905.67 723.722 1906.38 721.821 1907.09C720.001 1907.87 718.127 1908.54 716.2 1909.13C714.354 1909.76 712.522 1910.29 710.704 1910.71C708.968 1911.19 707.435 1911.45 706.108 1911.5C705.716 1909.46 705.065 1907.55 704.157 1905.75C703.329 1904.01 702.177 1902.23 700.699 1900.41C699.303 1898.64 697.433 1896.78 695.09 1894.84C692.828 1892.96 689.999 1890.87 686.602 1888.57L669.495 1876.99L630.092 1935.23C629.271 1936.44 628.815 1937.72 628.724 1939.08C628.688 1940.35 629.314 1941.95 630.601 1943.89C631.942 1945.74 634.094 1947.96 637.055 1950.55C640.072 1953.06 644.249 1956.13 649.587 1959.74L664.024 1969.51C667.745 1972.03 671.091 1973.88 674.062 1975.06C677.114 1976.3 680.198 1976.8 683.315 1976.55C686.432 1976.3 689.784 1975.26 693.371 1973.45C697.04 1971.69 701.338 1968.99 706.266 1965.37L710.972 1972.27ZM865.512 2027.7C863.777 2031.73 861.42 2035.61 858.442 2039.33C855.553 2043.08 852.055 2046.52 847.949 2049.64C843.971 2052.72 839.487 2055.36 834.497 2057.58C829.545 2059.7 824.158 2061.1 818.336 2061.79C812.603 2062.52 806.474 2062.43 799.948 2061.54C793.512 2060.69 786.749 2058.74 779.661 2055.7C776.611 2054.39 773.336 2052.61 769.838 2050.36C766.429 2048.15 763.001 2045.61 759.554 2042.75C756.159 2040.02 752.879 2037.01 749.715 2033.74C746.641 2030.51 743.977 2027.18 741.723 2023.77C741.249 2023.14 741.45 2021.31 742.325 2018.29C743.289 2015.3 744.6 2011.88 746.258 2008.02C747.916 2004.16 749.792 2000.29 751.886 1996.41C754.018 1992.44 756.086 1989.23 758.089 1986.8L764.663 1990.42C764.452 1996.6 765.004 2002.36 766.32 2007.71C767.636 2013.06 769.535 2017.92 772.019 2022.28C774.63 2026.59 777.781 2030.39 781.471 2033.67C785.199 2036.87 789.352 2039.45 793.928 2041.42C797.965 2043.15 802.266 2044.15 806.831 2044.41C811.434 2044.58 815.865 2044.04 820.123 2042.79C824.51 2041.49 828.417 2039.44 831.843 2036.67C835.398 2033.84 838.1 2030.27 839.951 2025.96C842.303 2020.49 843.116 2015.26 842.389 2010.27C841.663 2005.28 839.982 2000.41 837.345 1995.66C834.746 1990.83 831.455 1986.12 827.472 1981.54C823.527 1976.86 819.428 1972.18 815.175 1967.48C810.923 1962.79 806.862 1958.01 802.995 1953.16C799.165 1948.22 796.029 1943.15 793.584 1937.96C791.179 1932.67 789.786 1927.13 789.407 1921.33C789.028 1915.54 790.246 1909.36 793.06 1902.81C794.872 1898.6 797.89 1894.42 802.112 1890.28C806.374 1886.06 811.692 1882.71 818.067 1880.24C824.481 1877.68 831.868 1876.44 840.229 1876.53C848.679 1876.65 858.018 1878.91 868.247 1883.31C872.553 1885.16 876.725 1887.32 880.762 1889.8C884.799 1892.28 888.425 1894.85 891.641 1897.5C894.857 1900.16 897.618 1902.89 899.924 1905.69C902.229 1908.48 903.804 1911.13 904.648 1913.62C905.044 1914.42 904.524 1915.64 903.086 1917.25C901.687 1918.77 899.877 1920.39 897.657 1922.09C895.476 1923.71 893.179 1925.22 890.767 1926.62C888.355 1928.03 886.399 1929 884.898 1929.52L879.054 1926.06C878.148 1921.73 876.85 1917.83 875.161 1914.34C873.471 1910.85 871.525 1907.83 869.322 1905.29C867.157 1902.66 864.775 1900.42 862.173 1898.55C859.662 1896.73 857.15 1895.28 854.638 1894.2C849.793 1892.12 845.357 1891.06 841.331 1891.03C837.343 1890.91 833.745 1891.49 830.538 1892.77C827.37 1893.96 824.669 1895.67 822.436 1897.9C820.292 1900.17 818.681 1902.56 817.601 1905.07C815.789 1909.29 815.381 1913.58 816.377 1917.94C817.412 1922.21 819.305 1926.58 822.058 1931.06C824.939 1935.49 828.352 1940.04 832.297 1944.71C836.331 1949.42 840.417 1954.25 844.554 1959.22C848.82 1964.14 852.79 1969.24 856.465 1974.54C860.268 1979.79 863.296 1985.24 865.547 1990.88C867.888 1996.56 869.171 2002.48 869.396 2008.64C869.66 2014.7 868.365 2021.06 865.512 2027.7ZM926.465 2104.41L928.063 2096.81C932.64 2096.87 936.51 2096.74 939.674 2096.41C942.837 2096.07 945.37 2095.66 947.271 2095.16C949.287 2094.59 950.759 2094 951.684 2093.39C952.629 2092.7 953.172 2092.01 953.313 2091.34L984.525 1942.98L943.814 1934.41C942.381 1934.11 940.972 1934.17 939.589 1934.57C938.302 1935 936.778 1936.08 935.018 1937.8C933.374 1939.45 931.415 1941.89 929.142 1945.1C926.889 1948.22 924.129 1952.33 920.86 1957.43L913.896 1952.82C914.67 1950.09 915.6 1947.09 916.686 1943.83C917.792 1940.47 918.888 1937.15 919.974 1933.89C921.176 1930.55 922.357 1927.31 923.518 1924.16C924.775 1921.03 925.904 1918.27 926.905 1915.89L1074.55 1946.95L1078.47 1951.81C1077.85 1954.28 1077.09 1956.96 1076.18 1959.86C1075.29 1962.67 1074.26 1965.65 1073.1 1968.8C1072.05 1971.87 1070.9 1974.97 1069.64 1978.1C1068.48 1981.25 1067.3 1984.24 1066.11 1987.09L1058.22 1985.43C1058.19 1980.83 1058.18 1976.84 1058.2 1973.45C1058.21 1970.06 1058.01 1967.22 1057.59 1964.94C1057.2 1962.56 1056.43 1960.75 1055.29 1959.51C1054.27 1958.2 1052.76 1957.33 1050.75 1956.91L1011.76 1948.71L980.549 2097.07C980.428 2097.65 980.66 2098.44 981.243 2099.46C981.847 2100.39 982.956 2101.52 984.571 2102.86C986.186 2104.2 988.374 2105.65 991.135 2107.23C993.897 2108.81 997.385 2110.49 1001.6 2112.28L1000 2119.88L926.465 2104.41ZM1396.53 2111.68L1291.77 2132.4L1285.5 2122.6C1294.21 2107.23 1301.77 2093.64 1308.19 2081.82C1314.69 2069.88 1320.18 2059.39 1324.66 2050.34C1329.24 2041.27 1332.91 2033.43 1335.68 2026.8C1338.53 2020.07 1340.65 2014.17 1342.04 2009.12C1343.5 2003.95 1344.3 1999.42 1344.42 1995.51C1344.62 1991.49 1344.37 1987.7 1343.67 1984.16C1342.82 1979.85 1341.49 1975.93 1339.7 1972.4C1338 1968.86 1335.78 1965.91 1333.03 1963.57C1330.37 1961.21 1327.21 1959.59 1323.56 1958.72C1319.88 1957.76 1315.65 1957.75 1310.86 1958.7C1306.93 1959.47 1303.57 1961.09 1300.76 1963.53C1297.96 1965.98 1295.75 1968.9 1294.14 1972.31C1292.6 1975.6 1291.65 1979.12 1291.3 1982.87C1290.95 1986.63 1291.21 1990.21 1292.08 1993.62C1289.19 1996.08 1286.01 1998.41 1282.56 2000.58C1279.11 2002.76 1275.23 2004.52 1270.91 2005.87L1265.38 2000.55C1264.4 1995.56 1265.1 1990.05 1267.48 1984C1269.87 1977.96 1273.45 1972.17 1278.23 1966.64C1283.09 1961 1288.92 1956.02 1295.73 1951.68C1302.54 1947.35 1309.92 1944.4 1317.87 1942.82C1324.19 1941.57 1330.2 1941.23 1335.89 1941.8C1341.55 1942.27 1346.63 1943.76 1351.1 1946.25C1355.67 1948.73 1359.55 1952.2 1362.72 1956.65C1365.89 1961.1 1368.13 1966.68 1369.46 1973.38C1370.31 1977.69 1370.54 1982.13 1370.15 1986.69C1369.86 1991.22 1368.86 1996.25 1367.16 2001.76C1365.45 2007.18 1363.06 2013.22 1360 2019.9C1357.04 2026.56 1353.27 2034.18 1348.69 2042.75C1344.19 2051.2 1338.93 2060.81 1332.89 2071.56C1326.83 2082.21 1319.95 2094.23 1312.25 2107.6L1371.45 2095.88C1373.08 2095.56 1374.44 2094.89 1375.53 2093.88C1376.72 2092.85 1377.67 2091.62 1378.38 2090.18C1379.19 2088.73 1379.78 2087.17 1380.15 2085.5C1380.59 2083.72 1380.89 2081.97 1381.05 2080.25C1381.44 2076.19 1381.37 2071.57 1380.85 2066.4L1389.87 2066.7L1396.53 2111.68ZM1512.2 1986.12C1507.23 1973.7 1501.97 1963.18 1496.43 1954.57C1490.97 1945.91 1485.45 1939.08 1479.87 1934.05C1474.37 1928.99 1469.02 1925.71 1463.79 1924.23C1458.54 1922.65 1453.69 1922.75 1449.24 1924.52C1444.71 1926.33 1441.16 1929.17 1438.6 1933.03C1436.1 1936.77 1434.66 1941.71 1434.27 1947.86C1433.98 1953.97 1434.81 1961.31 1436.77 1969.89C1438.73 1978.47 1441.97 1988.42 1446.5 1999.76C1451.47 2012.18 1456.6 2022.8 1461.91 2031.62C1467.32 2040.4 1472.74 2047.38 1478.18 2052.57C1483.61 2057.75 1488.96 2061.14 1494.22 2062.72C1499.57 2064.26 1504.69 2064.05 1509.59 2062.1C1514.12 2060.28 1517.69 2057.49 1520.28 2053.72C1522.84 2049.86 1524.27 2044.87 1524.56 2038.76C1524.9 2032.52 1524.08 2025.07 1522.09 2016.4C1520.1 2007.73 1516.8 1997.64 1512.2 1986.12ZM1536.84 1970.44C1541.52 1982.13 1544.49 1993.78 1545.76 2005.36C1547.02 2016.95 1546.58 2027.7 1544.44 2037.6C1542.39 2047.46 1538.62 2056.17 1533.12 2063.74C1527.59 2071.2 1520.38 2076.72 1511.49 2080.27C1502.6 2083.82 1493.81 2084.71 1485.1 2082.93C1476.45 2081.02 1468.21 2077.11 1460.38 2071.19C1452.64 2065.24 1445.46 2057.54 1438.84 2048.09C1432.32 2038.61 1426.72 2028.02 1422.04 2016.32C1417.37 2004.62 1414.35 1993 1412.99 1981.44C1411.73 1969.86 1412.12 1959.13 1414.17 1949.26C1416.28 1939.27 1420.1 1930.54 1425.63 1923.07C1431.13 1915.51 1438.37 1909.94 1447.34 1906.35C1456.32 1902.76 1465.12 1901.88 1473.73 1903.69C1482.43 1905.47 1490.66 1909.34 1498.4 1915.29C1506.23 1921.2 1513.43 1928.95 1519.99 1938.52C1526.51 1948.01 1532.13 1958.65 1536.84 1970.44ZM1712.17 1970.72L1621.95 2027.86L1612.57 2020.97C1615.14 2003.5 1617.29 1988.1 1619.01 1974.76C1620.77 1961.28 1622.1 1949.51 1623.01 1939.45C1624.01 1929.34 1624.6 1920.7 1624.8 1913.53C1625.03 1906.22 1624.87 1899.96 1624.35 1894.74C1623.85 1889.39 1622.95 1884.87 1621.66 1881.19C1620.39 1877.36 1618.79 1873.93 1616.86 1870.87C1614.51 1867.16 1611.86 1863.98 1608.92 1861.34C1606.05 1858.64 1602.92 1856.7 1599.5 1855.51C1596.17 1854.27 1592.65 1853.9 1588.92 1854.41C1585.15 1854.84 1581.2 1856.35 1577.07 1858.97C1573.69 1861.11 1571.13 1863.83 1569.4 1867.12C1567.67 1870.41 1566.67 1873.94 1566.39 1877.69C1566.14 1881.32 1566.53 1884.94 1567.56 1888.57C1568.58 1892.2 1570.12 1895.45 1572.16 1898.31C1570.35 1901.66 1568.23 1904.97 1565.79 1908.24C1563.36 1911.52 1560.38 1914.56 1556.84 1917.38L1549.76 1914.41C1547.04 1910.12 1545.71 1904.72 1545.75 1898.22C1545.8 1891.72 1547.05 1885.03 1549.51 1878.15C1552.01 1871.14 1555.65 1864.38 1560.43 1857.89C1565.22 1851.39 1571.04 1845.97 1577.88 1841.63C1583.33 1838.18 1588.81 1835.7 1594.31 1834.18C1599.77 1832.57 1605.04 1832.12 1610.11 1832.84C1615.27 1833.5 1620.13 1835.34 1624.7 1838.34C1629.26 1841.35 1633.37 1845.74 1637.02 1851.51C1639.38 1855.23 1641.19 1859.28 1642.47 1863.67C1643.83 1868.01 1644.71 1873.06 1645.12 1878.81C1645.48 1884.48 1645.43 1890.98 1644.99 1898.31C1644.63 1905.59 1643.86 1914.06 1642.69 1923.7C1641.54 1933.21 1640.1 1944.07 1638.35 1956.27C1636.54 1968.39 1634.46 1982.08 1632.1 1997.33L1683.09 1965.04C1684.49 1964.15 1685.52 1963.04 1686.17 1961.7C1686.91 1960.31 1687.35 1958.82 1687.5 1957.22C1687.72 1955.57 1687.71 1953.91 1687.45 1952.22C1687.22 1950.4 1686.87 1948.66 1686.4 1947C1685.3 1943.07 1683.57 1938.79 1681.21 1934.15L1689.73 1931.18L1712.17 1970.72ZM1746.02 1822.43C1742.53 1825.56 1739.63 1830.08 1737.31 1835.97C1735.06 1841.8 1733.97 1848.69 1734.02 1856.64C1741.72 1865.21 1749.03 1872.04 1755.95 1877.11C1762.88 1882.05 1769.41 1885.44 1775.53 1887.29C1781.59 1889.07 1787.21 1889.4 1792.39 1888.3C1797.57 1887.05 1802.23 1884.57 1806.37 1880.85C1810.01 1877.59 1812.24 1874.01 1813.07 1870.11C1813.97 1866.15 1813.91 1862.13 1812.88 1858.07C1811.79 1853.93 1810 1849.89 1807.52 1845.95C1805.1 1841.95 1802.4 1838.28 1799.39 1834.94C1793.26 1828.11 1787.54 1823.21 1782.24 1820.22C1776.87 1817.17 1771.91 1815.45 1767.37 1815.07C1762.9 1814.62 1758.86 1815.17 1755.25 1816.7C1751.64 1818.24 1748.56 1820.15 1746.02 1822.43ZM1812.96 1810.15C1816.03 1813.56 1818.83 1817.48 1821.36 1821.91C1823.89 1826.33 1825.95 1831.04 1827.55 1836.03C1829.15 1841.03 1830.19 1846.2 1830.66 1851.55C1831.13 1856.9 1830.92 1862.22 1830.01 1867.49C1829.04 1872.69 1827.25 1877.79 1824.63 1882.76C1822.01 1887.74 1818.38 1892.32 1813.73 1896.49C1807.48 1902.1 1800.42 1906.08 1792.55 1908.43C1784.62 1910.7 1776.42 1911.3 1767.98 1910.22C1759.6 1909.08 1751.21 1906.25 1742.81 1901.72C1734.42 1897.05 1726.53 1890.61 1719.16 1882.4C1709.96 1872.16 1702.71 1860.95 1697.41 1848.77C1692.05 1836.52 1689.14 1823.78 1688.67 1810.54C1688.28 1797.24 1690.56 1783.71 1695.52 1769.94C1700.47 1756.16 1708.57 1742.53 1719.81 1729.02L1728.96 1734.39C1722.07 1744.11 1717.02 1753.83 1713.81 1763.55C1710.66 1773.2 1709.01 1782.62 1708.87 1791.81C1708.66 1800.93 1709.81 1809.74 1712.33 1818.24C1714.85 1826.74 1718.4 1834.64 1722.99 1841.94C1723.43 1837.47 1724.24 1833.33 1725.41 1829.52C1726.52 1825.64 1727.85 1822.15 1729.4 1819.05C1730.88 1815.88 1732.52 1813.1 1734.31 1810.71C1736.1 1808.17 1737.87 1806.13 1739.61 1804.56C1745.57 1799.21 1751.72 1795.39 1758.07 1793.1C1764.49 1790.75 1770.86 1789.88 1777.19 1790.49C1783.53 1790.97 1789.72 1792.89 1795.76 1796.26C1801.88 1799.56 1807.61 1804.19 1812.96 1810.15Z" fill="#54321E"/>
<circle cx="294" cy="1191" r="45" fill="#54321E"/>
<circle cx="2056" cy="1191" r="45" fill="#54321E"/>
</svg>
